<svg width="701" height="140" viewBox="0 0 701 140" fill="none" xmlns="http://www.w3.org/2000/svg">
<path d="M124.904 0C111.592 0 100.799 10.7715 100.799 24.0581V32.041L3.42006 106.785C-0.414847 109.738 -1.12704 115.233 1.80392 119.06C4.73489 122.888 10.2681 123.599 14.103 120.673L34.5376 104.981H70.9966L83.7614 135.901C85.131 139.264 88.9933 140.849 92.3351 139.482C95.677 138.115 97.2931 134.261 95.9235 130.925L85.2131 104.981H96.4165C96.7179 104.981 96.9918 104.981 97.2931 104.981L110.058 135.928C111.427 139.291 115.29 140.877 118.632 139.51C121.973 138.143 123.59 134.288 122.22 130.953L110.715 103.067C132.821 96.8065 149.01 76.5485 149.01 52.4904V34.9936V32.8065L171.06 27.3114C173.416 26.7373 174.84 24.3588 174.238 22.0077C172.293 14.2162 165.281 8.7484 157.227 8.7484H143.504C139.066 3.41734 132.382 0 124.904 0ZM124.904 30.6194C121.261 30.6194 118.33 27.6942 118.33 24.0581C118.33 20.4221 121.261 17.4968 124.904 17.4968C128.548 17.4968 131.479 20.4221 131.479 24.0581C131.479 27.6942 128.548 30.6194 124.904 30.6194Z" fill="black"/>
<path d="M197.947 106.281C194.605 106.281 191.398 106.038 188.325 105.553C185.252 105.068 182.449 104.394 179.916 103.531C177.436 102.615 175.28 101.618 173.447 100.54L180.805 86.47C182.907 87.656 185.01 88.6532 187.112 89.4618C189.268 90.2165 191.398 90.7825 193.5 91.1599C195.656 91.5372 197.786 91.7259 199.888 91.7259C201.559 91.7259 202.934 91.5911 204.012 91.3216C205.144 91.052 205.979 90.6747 206.518 90.1895C207.111 89.6505 207.408 89.0575 207.408 88.4106C207.408 87.5481 206.923 86.8474 205.952 86.3083C204.982 85.7692 203.688 85.2841 202.071 84.8528C200.508 84.4216 198.756 83.9903 196.815 83.5591C194.929 83.0739 193.015 82.481 191.074 81.7802C189.134 81.0255 187.355 80.0821 185.738 78.9501C184.174 77.8181 182.907 76.3895 181.937 74.6645C180.967 72.9395 180.482 70.8372 180.482 68.3575C180.482 64.045 181.614 60.2985 183.878 57.1181C186.196 53.9376 189.484 51.4849 193.743 49.7599C198.055 47.9809 203.176 47.0915 209.106 47.0915C213.311 47.0915 217.219 47.5227 220.83 48.3852C224.496 49.1938 227.65 50.3798 230.291 51.9431L223.418 65.8509C221.154 64.4493 218.674 63.3981 215.979 62.6974C213.338 61.9966 210.642 61.6462 207.893 61.6462C206.06 61.6462 204.524 61.8349 203.284 62.2122C202.044 62.5356 201.101 62.9938 200.454 63.5868C199.861 64.1798 199.564 64.7997 199.564 65.4466C199.564 66.3091 200.05 67.0368 201.02 67.6298C201.99 68.1688 203.284 68.654 204.901 69.0852C206.518 69.4626 208.27 69.8938 210.157 70.379C212.098 70.8102 214.011 71.3763 215.898 72.077C217.839 72.7239 219.618 73.6134 221.235 74.7454C222.852 75.8235 224.146 77.2251 225.116 78.9501C226.086 80.6212 226.571 82.6966 226.571 85.1763C226.571 89.381 225.413 93.0735 223.095 96.254C220.777 99.3806 217.461 101.833 213.149 103.612C208.89 105.391 203.823 106.281 197.947 106.281ZM254.001 105.795C249.15 105.795 244.918 104.96 241.306 103.289C237.695 101.564 234.891 99.1649 232.897 96.0923C230.956 93.0196 229.986 89.4349 229.986 85.338C229.986 80.4864 231.172 76.147 233.544 72.3196C235.916 68.4923 239.177 65.4735 243.328 63.2634C247.478 61.0532 252.222 59.9481 257.559 59.9481C262.464 59.9481 266.696 60.8106 270.254 62.5356C273.866 64.2067 276.642 66.5786 278.582 69.6513C280.577 72.67 281.574 76.2548 281.574 80.4056C281.574 85.2571 280.388 89.5966 278.016 93.4239C275.645 97.2513 272.383 100.27 268.232 102.48C264.136 104.69 259.392 105.795 254.001 105.795ZM255.052 91.5642C256.67 91.5642 258.071 91.1599 259.257 90.3513C260.443 89.4888 261.359 88.3028 262.006 86.7935C262.707 85.2302 263.057 83.3974 263.057 81.295C263.057 79.4083 262.491 77.7642 261.359 76.3626C260.227 74.9071 258.61 74.1794 256.508 74.1794C254.945 74.1794 253.543 74.6106 252.303 75.4731C251.117 76.2817 250.174 77.4677 249.473 79.031C248.826 80.5403 248.503 82.3462 248.503 84.4485C248.503 86.5509 249.069 88.2759 250.201 89.6235C251.387 90.9173 253.004 91.5642 255.052 91.5642ZM308.725 105.795C303.874 105.795 299.642 104.96 296.03 103.289C292.419 101.564 289.615 99.1649 287.621 96.0923C285.626 93.0196 284.629 89.4349 284.629 85.338C284.629 80.4864 285.815 76.147 288.187 72.3196C290.559 68.4923 293.847 65.4735 298.052 63.2634C302.257 61.0532 307.081 59.9481 312.526 59.9481C317.808 59.9481 322.391 61.1071 326.272 63.4251C330.153 65.7431 332.875 68.8966 334.439 72.8856L318.914 80.0013C318.159 77.9528 317.135 76.4974 315.841 75.6349C314.601 74.7724 313.199 74.3411 311.636 74.3411C310.019 74.3411 308.564 74.7724 307.27 75.6349C305.976 76.4435 304.952 77.5755 304.197 79.031C303.496 80.4864 303.146 82.2114 303.146 84.206C303.146 86.3083 303.739 88.0333 304.925 89.381C306.111 90.7286 307.836 91.4024 310.1 91.4024C311.879 91.4024 313.442 90.9712 314.79 90.1087C316.137 89.2462 317.323 87.7907 318.348 85.7423L331.689 93.5048C329.533 97.386 326.46 100.405 322.471 102.561C318.536 104.717 313.954 105.795 308.725 105.795ZM332.357 104.987L341.171 60.7567H359.364L350.55 104.987H332.357ZM352.248 57.1989C349.068 57.1989 346.534 56.3634 344.648 54.6923C342.815 53.0212 341.898 50.9727 341.898 48.547C341.898 45.6899 342.95 43.3181 345.052 41.4313C347.208 39.5446 350.038 38.6013 353.542 38.6013C356.723 38.6013 359.229 39.3829 361.062 40.9462C362.949 42.5095 363.892 44.504 363.892 46.9298C363.892 49.9485 362.814 52.4282 360.658 54.3688C358.556 56.2556 355.752 57.1989 352.248 57.1989ZM378.867 105.795C375.956 105.795 373.099 105.014 370.296 103.45C367.493 101.833 365.175 99.5153 363.342 96.4966C361.563 93.4239 360.674 89.7044 360.674 85.338C360.674 81.6724 361.294 78.3032 362.533 75.2306C363.773 72.1579 365.471 69.4895 367.628 67.2255C369.838 64.9075 372.344 63.1286 375.147 61.8888C378.004 60.595 381.023 59.9481 384.204 59.9481C387.654 59.9481 390.646 60.6489 393.179 62.0505C395.713 63.452 397.519 65.8239 398.597 69.1661C399.729 72.4544 399.837 77.0095 398.92 82.8313C398.165 87.5751 396.872 91.672 395.039 95.122C393.26 98.572 391.023 101.213 388.328 103.046C385.632 104.879 382.479 105.795 378.867 105.795ZM385.74 91.4024C387.357 91.4024 388.759 90.9981 389.945 90.1895C391.131 89.327 392.047 88.1411 392.694 86.6317C393.395 85.1224 393.745 83.3435 393.745 81.295C393.745 79.2466 393.152 77.5755 391.966 76.2817C390.834 74.988 389.244 74.3411 387.196 74.3411C385.632 74.3411 384.231 74.7724 382.991 75.6349C381.805 76.4435 380.862 77.6024 380.161 79.1118C379.514 80.6212 379.19 82.4001 379.19 84.4485C379.19 86.497 379.756 88.1681 380.888 89.4618C382.074 90.7556 383.692 91.4024 385.74 91.4024ZM390.026 104.987L391.238 99.0032L394.23 82.8313L396.575 66.8212L397.788 60.7567H416.062L407.249 104.987H390.026ZM415.27 104.987L427.237 44.9891H445.511L433.544 104.987H415.27ZM498.634 106.281C492.812 106.281 487.718 105.229 483.351 103.127C478.985 100.971 475.589 98.006 473.163 94.2325C470.791 90.4052 469.605 85.9849 469.605 80.9716C469.605 76.0122 470.468 71.4571 472.193 67.3063C473.972 63.1556 476.451 59.5708 479.632 56.552C482.812 53.5333 486.586 51.2153 490.952 49.5981C495.318 47.927 500.116 47.0915 505.345 47.0915C510.79 47.0915 515.614 48.0618 519.819 50.0024C524.023 51.9431 527.15 54.7462 529.198 58.4118L515.452 69.1661C514.266 67.0638 512.73 65.4466 510.843 64.3145C508.957 63.1286 506.72 62.5356 504.132 62.5356C501.868 62.5356 499.793 62.9669 497.906 63.8294C496.073 64.638 494.483 65.8239 493.135 67.3872C491.788 68.8966 490.736 70.7024 489.982 72.8048C489.227 74.9071 488.85 77.2251 488.85 79.7587C488.85 81.9688 489.335 83.9095 490.305 85.5806C491.275 87.2517 492.623 88.5454 494.348 89.4618C496.127 90.3782 498.175 90.8364 500.493 90.8364C502.704 90.8364 504.86 90.3243 506.962 89.3001C509.118 88.2759 511.167 86.6048 513.107 84.2868L524.347 95.0411C520.897 99.2458 517.043 102.184 512.784 103.855C508.579 105.472 503.863 106.281 498.634 106.281ZM526.056 104.987L534.87 60.7567H552.093L549.586 73.2899L547.888 69.7321C549.721 66.2282 552.255 63.7216 555.489 62.2122C558.777 60.7028 562.524 59.9481 566.729 59.9481L563.494 76.12C562.74 76.0122 562.039 75.9313 561.392 75.8774C560.799 75.8235 560.179 75.7966 559.532 75.7966C556.513 75.7966 554.061 76.4704 552.174 77.8181C550.341 79.1657 549.101 81.4028 548.454 84.5294L544.331 104.987H526.056ZM588.494 105.795C583.642 105.795 579.411 104.96 575.799 103.289C572.187 101.564 569.384 99.1649 567.389 96.0923C565.449 93.0196 564.478 89.4349 564.478 85.338C564.478 80.4864 565.664 76.147 568.036 72.3196C570.408 68.4923 573.669 65.4735 577.82 63.2634C581.971 61.0532 586.715 59.9481 592.052 59.9481C596.957 59.9481 601.189 60.8106 604.746 62.5356C608.358 64.2067 611.134 66.5786 613.075 69.6513C615.069 72.67 616.067 76.2548 616.067 80.4056C616.067 85.2571 614.881 89.5966 612.509 93.4239C610.137 97.2513 606.876 100.27 602.725 102.48C598.628 104.69 593.884 105.795 588.494 105.795ZM589.545 91.5642C591.162 91.5642 592.564 91.1599 593.75 90.3513C594.936 89.4888 595.852 88.3028 596.499 86.7935C597.2 85.2302 597.55 83.3974 597.55 81.295C597.55 79.4083 596.984 77.7642 595.852 76.3626C594.72 74.9071 593.103 74.1794 591 74.1794C589.437 74.1794 588.036 74.6106 586.796 75.4731C585.61 76.2817 584.666 77.4677 583.966 79.031C583.319 80.5403 582.995 82.3462 582.995 84.4485C582.995 86.5509 583.561 88.2759 584.693 89.6235C585.879 90.9173 587.496 91.5642 589.545 91.5642ZM627.317 104.987L620.201 60.7567H636.858L641.791 96.6583H633.139L652.545 60.7567H668.232L673.245 96.6583H664.674L683.999 60.7567H700.98L677.126 104.987H659.095L654.567 76.5243H659.984L645.268 104.987H627.317Z" fill="black"/>
</svg>
